# xmcd
#
# Track frame offsets:
#	150
#	9498
#	30496
#	47602
#	59429
#	77850
#	86086
#	108951
#	129008
#	147725
#	163394
#	182507
#	197570
#	208408
#	226755
#	242163
#	262252
#	275695
#	290030
#	302602
#	313287
#	333508
#
# Disc length: 4731 seconds
#
# Revision: 0
# Processed by: cddbd v1.5.2PL0 Copyright (c) Steve Scherf et al.
# Submitted via: EasyCDDAExtractor 2010.6.0.0
#
DISCID=4c127916
DTITLE=Various Artist - 한국인이 좋아하는 가곡모음 44곡 CD2
DYEAR=1900
DGENRE=
TTITLE0=이인영 - 성불사의 밤
TTITLE1=정동희 - 저 구름 흘러가는 곳
TTITLE2=김성길 - 기다리는 마음
TTITLE3=김진원 - 뱃노래
TTITLE4=김학남 - 바우고개
TTITLE5=서병선 - 희망의 나라로
TTITLE6=이규도 - 동심초
TTITLE7=엄정행 - 가고파(전)
TTITLE8=엄정행 - 목련화
TTITLE9=정영자 - 그리움
TTITLE10=남덕우 - 진달래꽃
TTITLE11=서병선 - 고향 생각
TTITLE12=남덕우 - 고향이 그리워
TTITLE13=강무림 - 고독
TTITLE14=박순복 - 한송이 흰 백합화
TTITLE15=신은미 - 비가
TTITLE16=강화자 - 봄처녀
TTITLE17=서병선 - 이별의 노래
TTITLE18=김영자 - 그네
TTITLE19=배행숙 - 꽃구름 속에
TTITLE20=곽신형 - 산
TTITLE21=김영환 - 초혼
EXTD=
EXTT0=
EXTT1=
EXTT2=
EXTT3=
EXTT4=
EXTT5=
EXTT6=
EXTT7=
EXTT8=
EXTT9=
EXTT10=
EXTT11=
EXTT12=
EXTT13=
EXTT14=
EXTT15=
EXTT16=
EXTT17=
EXTT18=
EXTT19=
EXTT20=
EXTT21=
PLAYORDER=
